<mxfile host="app.diagrams.net" modified="2024-01-08T11:54:17.396Z" agent="Mozilla/5.0 (Windows NT 10.0; Win64; x64) AppleWebKit/537.36 (KHTML, like Gecko) Chrome/117.0.0.0 Safari/537.36" etag="aDJ9xLWxXcz2Gzb0OY1z" version="22.1.17" type="github">
  <diagram name="第 1 页" id="ojvPi8WQd3-tFRqyGhmH">
    <mxGraphModel dx="2189" dy="540" grid="0" gridSize="10" guides="1" tooltips="1" connect="1" arrows="1" fold="1" page="0" pageScale="1" pageWidth="827" pageHeight="1169" math="0" shadow="0">
      <root>
        <mxCell id="0" />
        <mxCell id="1" parent="0" />
        <mxCell id="dn2wFribe9WqmOmaaQCE-37" value="" style="rounded=0;whiteSpace=wrap;html=1;fillColor=#FAFAFA;" vertex="1" parent="1">
          <mxGeometry x="-874" y="140" width="374" height="340" as="geometry" />
        </mxCell>
        <mxCell id="dn2wFribe9WqmOmaaQCE-65" style="edgeStyle=orthogonalEdgeStyle;rounded=0;orthogonalLoop=1;jettySize=auto;html=1;exitX=1;exitY=0.5;exitDx=0;exitDy=0;" edge="1" parent="1" source="dn2wFribe9WqmOmaaQCE-63" target="dn2wFribe9WqmOmaaQCE-39">
          <mxGeometry relative="1" as="geometry" />
        </mxCell>
        <mxCell id="dn2wFribe9WqmOmaaQCE-63" value="" style="rounded=0;whiteSpace=wrap;html=1;fillColor=#D5E8D4;" vertex="1" parent="1">
          <mxGeometry x="-860" y="200" width="130" height="220" as="geometry" />
        </mxCell>
        <mxCell id="dn2wFribe9WqmOmaaQCE-2" value="未出行机票" style="rounded=0;whiteSpace=wrap;html=1;" vertex="1" parent="1">
          <mxGeometry x="667" y="140" width="70" height="30" as="geometry" />
        </mxCell>
        <mxCell id="dn2wFribe9WqmOmaaQCE-3" value="未出行酒店" style="rounded=0;whiteSpace=wrap;html=1;" vertex="1" parent="1">
          <mxGeometry x="667" y="190" width="70" height="30" as="geometry" />
        </mxCell>
        <mxCell id="dn2wFribe9WqmOmaaQCE-4" value="未出行火车" style="rounded=0;whiteSpace=wrap;html=1;" vertex="1" parent="1">
          <mxGeometry x="667" y="240" width="70" height="30" as="geometry" />
        </mxCell>
        <mxCell id="dn2wFribe9WqmOmaaQCE-5" value="历史机场" style="rounded=0;whiteSpace=wrap;html=1;" vertex="1" parent="1">
          <mxGeometry x="757" y="140" width="70" height="30" as="geometry" />
        </mxCell>
        <mxCell id="dn2wFribe9WqmOmaaQCE-6" value="历史地址" style="rounded=0;whiteSpace=wrap;html=1;" vertex="1" parent="1">
          <mxGeometry x="757" y="190" width="70" height="30" as="geometry" />
        </mxCell>
        <mxCell id="dn2wFribe9WqmOmaaQCE-7" value="历史火车站" style="rounded=0;whiteSpace=wrap;html=1;" vertex="1" parent="1">
          <mxGeometry x="757" y="240" width="70" height="30" as="geometry" />
        </mxCell>
        <mxCell id="dn2wFribe9WqmOmaaQCE-8" value="......" style="rounded=0;whiteSpace=wrap;html=1;" vertex="1" parent="1">
          <mxGeometry x="667" y="290" width="70" height="30" as="geometry" />
        </mxCell>
        <mxCell id="dn2wFribe9WqmOmaaQCE-9" value="" style="rounded=0;whiteSpace=wrap;html=1;dashed=1;" vertex="1" parent="1">
          <mxGeometry x="200" y="260" width="320" height="50" as="geometry" />
        </mxCell>
        <mxCell id="dn2wFribe9WqmOmaaQCE-10" value="用户信息" style="text;html=1;strokeColor=none;fillColor=none;align=center;verticalAlign=middle;whiteSpace=wrap;rounded=0;" vertex="1" parent="1">
          <mxGeometry x="120" y="270" width="60" height="30" as="geometry" />
        </mxCell>
        <mxCell id="dn2wFribe9WqmOmaaQCE-11" value="下游依赖" style="text;html=1;strokeColor=none;fillColor=none;align=center;verticalAlign=middle;whiteSpace=wrap;rounded=0;" vertex="1" parent="1">
          <mxGeometry x="120" y="350" width="60" height="30" as="geometry" />
        </mxCell>
        <mxCell id="dn2wFribe9WqmOmaaQCE-38" value="" style="rounded=0;whiteSpace=wrap;html=1;fillColor=#FAFAFA;" vertex="1" parent="1">
          <mxGeometry x="-371" y="140" width="170" height="340" as="geometry" />
        </mxCell>
        <mxCell id="dn2wFribe9WqmOmaaQCE-57" style="edgeStyle=orthogonalEdgeStyle;rounded=0;orthogonalLoop=1;jettySize=auto;html=1;exitX=1;exitY=0.5;exitDx=0;exitDy=0;entryX=0;entryY=0.5;entryDx=0;entryDy=0;dashed=1;" edge="1" parent="1" source="dn2wFribe9WqmOmaaQCE-39" target="dn2wFribe9WqmOmaaQCE-38">
          <mxGeometry relative="1" as="geometry" />
        </mxCell>
        <mxCell id="dn2wFribe9WqmOmaaQCE-39" value="" style="rounded=0;whiteSpace=wrap;html=1;fillColor=#FFE6CC;" vertex="1" parent="1">
          <mxGeometry x="-668" y="200" width="150" height="220" as="geometry" />
        </mxCell>
        <mxCell id="dn2wFribe9WqmOmaaQCE-40" value="未出行机票" style="rounded=1;whiteSpace=wrap;html=1;fillColor=#D5E8D4;" vertex="1" parent="1">
          <mxGeometry x="-658" y="240" width="60" height="30" as="geometry" />
        </mxCell>
        <mxCell id="dn2wFribe9WqmOmaaQCE-41" value="未出行火车票" style="rounded=1;whiteSpace=wrap;html=1;fillColor=#D5E8D4;" vertex="1" parent="1">
          <mxGeometry x="-588" y="240" width="60" height="30" as="geometry" />
        </mxCell>
        <mxCell id="dn2wFribe9WqmOmaaQCE-42" value="未出行酒店" style="rounded=1;whiteSpace=wrap;html=1;fillColor=#D5E8D4;" vertex="1" parent="1">
          <mxGeometry x="-658" y="290" width="60" height="30" as="geometry" />
        </mxCell>
        <mxCell id="dn2wFribe9WqmOmaaQCE-43" value="历史地址" style="rounded=1;whiteSpace=wrap;html=1;fillColor=#D5E8D4;" vertex="1" parent="1">
          <mxGeometry x="-588" y="290" width="60" height="30" as="geometry" />
        </mxCell>
        <mxCell id="dn2wFribe9WqmOmaaQCE-44" value="历史机场" style="rounded=1;whiteSpace=wrap;html=1;fillColor=#D5E8D4;" vertex="1" parent="1">
          <mxGeometry x="-658" y="340" width="60" height="30" as="geometry" />
        </mxCell>
        <mxCell id="dn2wFribe9WqmOmaaQCE-45" value="历史火车站" style="rounded=1;whiteSpace=wrap;html=1;fillColor=#D5E8D4;" vertex="1" parent="1">
          <mxGeometry x="-588" y="340" width="60" height="30" as="geometry" />
        </mxCell>
        <mxCell id="dn2wFribe9WqmOmaaQCE-46" value="......." style="rounded=1;whiteSpace=wrap;html=1;fillColor=#D5E8D4;" vertex="1" parent="1">
          <mxGeometry x="-658" y="383" width="60" height="30" as="geometry" />
        </mxCell>
        <mxCell id="dn2wFribe9WqmOmaaQCE-50" value="用户信息池" style="text;html=1;strokeColor=none;fillColor=none;align=center;verticalAlign=middle;whiteSpace=wrap;rounded=0;" vertex="1" parent="1">
          <mxGeometry x="-632" y="196" width="78" height="30" as="geometry" />
        </mxCell>
        <mxCell id="dn2wFribe9WqmOmaaQCE-51" value="外部依赖" style="text;html=1;strokeColor=none;fillColor=none;align=center;verticalAlign=middle;whiteSpace=wrap;rounded=0;" vertex="1" parent="1">
          <mxGeometry x="-325" y="140" width="60" height="30" as="geometry" />
        </mxCell>
        <mxCell id="dn2wFribe9WqmOmaaQCE-52" value="航班服务" style="rounded=0;whiteSpace=wrap;html=1;fillColor=#FFCE9F;" vertex="1" parent="1">
          <mxGeometry x="-321" y="221" width="75" height="40" as="geometry" />
        </mxCell>
        <mxCell id="dn2wFribe9WqmOmaaQCE-53" value="用户信息服务" style="rounded=0;whiteSpace=wrap;html=1;fillColor=#FFCE9F;" vertex="1" parent="1">
          <mxGeometry x="-321" y="286" width="75" height="40" as="geometry" />
        </mxCell>
        <mxCell id="dn2wFribe9WqmOmaaQCE-55" value="geo服务" style="rounded=0;whiteSpace=wrap;html=1;fillColor=#FFCE9F;" vertex="1" parent="1">
          <mxGeometry x="-321" y="356" width="75" height="40" as="geometry" />
        </mxCell>
        <mxCell id="dn2wFribe9WqmOmaaQCE-58" style="edgeStyle=orthogonalEdgeStyle;rounded=0;orthogonalLoop=1;jettySize=auto;html=1;exitX=1;exitY=0.75;exitDx=0;exitDy=0;entryX=-0.004;entryY=0.66;entryDx=0;entryDy=0;entryPerimeter=0;dashed=1;" edge="1" parent="1" source="dn2wFribe9WqmOmaaQCE-39" target="dn2wFribe9WqmOmaaQCE-38">
          <mxGeometry relative="1" as="geometry" />
        </mxCell>
        <mxCell id="dn2wFribe9WqmOmaaQCE-59" style="edgeStyle=orthogonalEdgeStyle;rounded=0;orthogonalLoop=1;jettySize=auto;html=1;exitX=1;exitY=0.25;exitDx=0;exitDy=0;entryX=-0.004;entryY=0.337;entryDx=0;entryDy=0;entryPerimeter=0;dashed=1;" edge="1" parent="1" source="dn2wFribe9WqmOmaaQCE-39" target="dn2wFribe9WqmOmaaQCE-38">
          <mxGeometry relative="1" as="geometry" />
        </mxCell>
        <mxCell id="dn2wFribe9WqmOmaaQCE-60" value="异步并行查询" style="text;html=1;strokeColor=none;fillColor=none;align=center;verticalAlign=middle;whiteSpace=wrap;rounded=0;" vertex="1" parent="1">
          <mxGeometry x="-480" y="226" width="78" height="26" as="geometry" />
        </mxCell>
        <mxCell id="dn2wFribe9WqmOmaaQCE-61" value="预加载引擎" style="text;html=1;strokeColor=none;fillColor=none;align=center;verticalAlign=middle;whiteSpace=wrap;rounded=0;" vertex="1" parent="1">
          <mxGeometry x="-710" y="140" width="70" height="30" as="geometry" />
        </mxCell>
        <mxCell id="dn2wFribe9WqmOmaaQCE-62" value="qconfig" style="shape=cylinder3;whiteSpace=wrap;html=1;boundedLbl=1;backgroundOutline=1;size=15;fillColor=#FFF2CC;" vertex="1" parent="1">
          <mxGeometry x="-827" y="258" width="60" height="80" as="geometry" />
        </mxCell>
        <mxCell id="dn2wFribe9WqmOmaaQCE-64" value="配置信息" style="text;html=1;strokeColor=none;fillColor=none;align=center;verticalAlign=middle;whiteSpace=wrap;rounded=0;" vertex="1" parent="1">
          <mxGeometry x="-840" y="196" width="60" height="30" as="geometry" />
        </mxCell>
        <mxCell id="dn2wFribe9WqmOmaaQCE-66" value="配置项：&lt;br style=&quot;font-size: 4px;&quot;&gt;-用户信息类型&lt;br style=&quot;font-size: 4px;&quot;&gt;-是否开启预加载&lt;br style=&quot;font-size: 4px;&quot;&gt;-接口&lt;br style=&quot;font-size: 4px;&quot;&gt;-超时时长" style="text;html=1;strokeColor=none;fillColor=none;align=left;verticalAlign=middle;whiteSpace=wrap;rounded=0;fontSize=4;" vertex="1" parent="1">
          <mxGeometry x="-855.5" y="353" width="121" height="60" as="geometry" />
        </mxCell>
        <mxCell id="dn2wFribe9WqmOmaaQCE-68" value="" style="rounded=0;whiteSpace=wrap;html=1;fillColor=#FAFAFA;" vertex="1" parent="1">
          <mxGeometry x="-883" y="736" width="682" height="149" as="geometry" />
        </mxCell>
        <mxCell id="dn2wFribe9WqmOmaaQCE-70" value="" style="rounded=0;whiteSpace=wrap;html=1;fillColor=#D5E8D4;" vertex="1" parent="1">
          <mxGeometry x="-847" y="758" width="286" height="108" as="geometry" />
        </mxCell>
        <mxCell id="dn2wFribe9WqmOmaaQCE-71" value="" style="rounded=0;whiteSpace=wrap;html=1;fillColor=#FAFAFA;" vertex="1" parent="1">
          <mxGeometry x="-882" y="935" width="694" height="123" as="geometry" />
        </mxCell>
        <mxCell id="dn2wFribe9WqmOmaaQCE-73" value="" style="rounded=0;whiteSpace=wrap;html=1;fillColor=#FFE6CC;" vertex="1" parent="1">
          <mxGeometry x="-543" y="758" width="307" height="110" as="geometry" />
        </mxCell>
        <mxCell id="dn2wFribe9WqmOmaaQCE-74" value="未出行机票" style="rounded=1;whiteSpace=wrap;html=1;fillColor=#D5E8D4;" vertex="1" parent="1">
          <mxGeometry x="-513" y="781" width="60" height="30" as="geometry" />
        </mxCell>
        <mxCell id="dn2wFribe9WqmOmaaQCE-75" value="未出行火车票" style="rounded=1;whiteSpace=wrap;html=1;fillColor=#D5E8D4;" vertex="1" parent="1">
          <mxGeometry x="-430" y="781" width="60" height="30" as="geometry" />
        </mxCell>
        <mxCell id="dn2wFribe9WqmOmaaQCE-76" value="未出行酒店" style="rounded=1;whiteSpace=wrap;html=1;fillColor=#D5E8D4;" vertex="1" parent="1">
          <mxGeometry x="-337" y="781" width="60" height="30" as="geometry" />
        </mxCell>
        <mxCell id="dn2wFribe9WqmOmaaQCE-77" value="历史地址" style="rounded=1;whiteSpace=wrap;html=1;fillColor=#D5E8D4;" vertex="1" parent="1">
          <mxGeometry x="-513" y="824" width="60" height="30" as="geometry" />
        </mxCell>
        <mxCell id="dn2wFribe9WqmOmaaQCE-78" value="历史机场" style="rounded=1;whiteSpace=wrap;html=1;fillColor=#D5E8D4;" vertex="1" parent="1">
          <mxGeometry x="-430" y="826" width="60" height="30" as="geometry" />
        </mxCell>
        <mxCell id="dn2wFribe9WqmOmaaQCE-79" value="......" style="rounded=1;whiteSpace=wrap;html=1;fillColor=#D5E8D4;" vertex="1" parent="1">
          <mxGeometry x="-334" y="826" width="60" height="30" as="geometry" />
        </mxCell>
        <mxCell id="dn2wFribe9WqmOmaaQCE-83" value="航班服务" style="rounded=0;whiteSpace=wrap;html=1;fillColor=#FFCE9F;" vertex="1" parent="1">
          <mxGeometry x="-827.75" y="974.25" width="75" height="40" as="geometry" />
        </mxCell>
        <mxCell id="dn2wFribe9WqmOmaaQCE-84" value="用户信息服务" style="rounded=0;whiteSpace=wrap;html=1;fillColor=#FFCE9F;" vertex="1" parent="1">
          <mxGeometry x="-694.75" y="974.25" width="75" height="40" as="geometry" />
        </mxCell>
        <mxCell id="dn2wFribe9WqmOmaaQCE-85" value="geo服务" style="rounded=0;whiteSpace=wrap;html=1;fillColor=#FFCE9F;" vertex="1" parent="1">
          <mxGeometry x="-547.75" y="974.25" width="75" height="40" as="geometry" />
        </mxCell>
        <mxCell id="dn2wFribe9WqmOmaaQCE-90" value="qconfig" style="shape=cylinder3;whiteSpace=wrap;html=1;boundedLbl=1;backgroundOutline=1;size=15;fillColor=#FFF2CC;" vertex="1" parent="1">
          <mxGeometry x="-809" y="785" width="54" height="66" as="geometry" />
        </mxCell>
        <mxCell id="dn2wFribe9WqmOmaaQCE-92" value="配置项：&lt;br style=&quot;font-size: 4px;&quot;&gt;-用户信息类型&lt;br style=&quot;font-size: 4px;&quot;&gt;-是否开启预加载&lt;br style=&quot;font-size: 4px;&quot;&gt;-接口&lt;br style=&quot;font-size: 4px;&quot;&gt;-超时时长" style="text;html=1;strokeColor=none;fillColor=none;align=left;verticalAlign=middle;whiteSpace=wrap;rounded=0;fontSize=4;" vertex="1" parent="1">
          <mxGeometry x="-708" y="797" width="121" height="60" as="geometry" />
        </mxCell>
        <mxCell id="dn2wFribe9WqmOmaaQCE-95" value="......" style="rounded=0;whiteSpace=wrap;html=1;fillColor=#FFCE9F;" vertex="1" parent="1">
          <mxGeometry x="-403.25" y="978.75" width="75" height="40" as="geometry" />
        </mxCell>
      </root>
    </mxGraphModel>
  </diagram>
</mxfile>
